<mxfile host="app.diagrams.net" modified="2023-06-06T13:32:48.850Z" agent="Mozilla/5.0 (Windows NT 10.0; Win64; x64) AppleWebKit/537.36 (KHTML, like Gecko) Chrome/113.0.0.0 Safari/537.36" etag="J2ctNeL0JnaZpLfUqza4" version="21.2.7" type="device">
  <diagram name="Página-1" id="lHg9ucBRZU4MC8yE_gh6">
    <mxGraphModel dx="1257" dy="680" grid="1" gridSize="10" guides="1" tooltips="1" connect="1" arrows="1" fold="1" page="1" pageScale="1" pageWidth="827" pageHeight="1169" math="0" shadow="0">
      <root>
        <mxCell id="0" />
        <mxCell id="1" parent="0" />
        <mxCell id="AduboDJ0jxMKq9eSyYHY-11" value="" style="edgeStyle=orthogonalEdgeStyle;rounded=0;orthogonalLoop=1;jettySize=auto;html=1;" edge="1" parent="1" source="AduboDJ0jxMKq9eSyYHY-1" target="AduboDJ0jxMKq9eSyYHY-10">
          <mxGeometry relative="1" as="geometry" />
        </mxCell>
        <mxCell id="AduboDJ0jxMKq9eSyYHY-28" value="" style="edgeStyle=orthogonalEdgeStyle;rounded=0;orthogonalLoop=1;jettySize=auto;html=1;" edge="1" parent="1" source="AduboDJ0jxMKq9eSyYHY-1" target="AduboDJ0jxMKq9eSyYHY-27">
          <mxGeometry relative="1" as="geometry">
            <Array as="points">
              <mxPoint x="365" y="90" />
              <mxPoint x="365" y="70" />
            </Array>
          </mxGeometry>
        </mxCell>
        <mxCell id="AduboDJ0jxMKq9eSyYHY-1" value="Início" style="rounded=0;whiteSpace=wrap;html=1;" vertex="1" parent="1">
          <mxGeometry x="195" y="80" width="120" height="60" as="geometry" />
        </mxCell>
        <mxCell id="AduboDJ0jxMKq9eSyYHY-2" value="&lt;b&gt;&lt;font style=&quot;font-size: 16px;&quot;&gt;ESP32 PORTA&lt;/font&gt;&lt;/b&gt;" style="text;html=1;strokeColor=none;fillColor=none;align=center;verticalAlign=middle;whiteSpace=wrap;rounded=0;" vertex="1" parent="1">
          <mxGeometry x="190" y="40" width="130" height="30" as="geometry" />
        </mxCell>
        <mxCell id="AduboDJ0jxMKq9eSyYHY-13" value="Falha" style="edgeStyle=orthogonalEdgeStyle;rounded=0;orthogonalLoop=1;jettySize=auto;html=1;" edge="1" parent="1" source="AduboDJ0jxMKq9eSyYHY-10" target="AduboDJ0jxMKq9eSyYHY-12">
          <mxGeometry relative="1" as="geometry" />
        </mxCell>
        <mxCell id="AduboDJ0jxMKq9eSyYHY-47" value="Sucesso" style="edgeStyle=orthogonalEdgeStyle;rounded=0;orthogonalLoop=1;jettySize=auto;html=1;entryX=0.5;entryY=0;entryDx=0;entryDy=0;" edge="1" parent="1" source="AduboDJ0jxMKq9eSyYHY-10" target="AduboDJ0jxMKq9eSyYHY-15">
          <mxGeometry relative="1" as="geometry">
            <Array as="points">
              <mxPoint x="255" y="370" />
              <mxPoint x="60" y="370" />
            </Array>
          </mxGeometry>
        </mxCell>
        <mxCell id="AduboDJ0jxMKq9eSyYHY-10" value="Conectar&lt;br&gt;Rede/Servidor" style="rhombus;whiteSpace=wrap;html=1;rounded=0;" vertex="1" parent="1">
          <mxGeometry x="200" y="255" width="110" height="110" as="geometry" />
        </mxCell>
        <mxCell id="AduboDJ0jxMKq9eSyYHY-12" value="Modo Offline" style="whiteSpace=wrap;html=1;rounded=0;" vertex="1" parent="1">
          <mxGeometry x="10" y="280" width="120" height="60" as="geometry" />
        </mxCell>
        <mxCell id="AduboDJ0jxMKq9eSyYHY-25" value="Inicializa" style="edgeStyle=orthogonalEdgeStyle;rounded=0;orthogonalLoop=1;jettySize=auto;html=1;entryX=0;entryY=0.5;entryDx=0;entryDy=0;exitX=0.5;exitY=1;exitDx=0;exitDy=0;" edge="1" parent="1" source="AduboDJ0jxMKq9eSyYHY-15" target="AduboDJ0jxMKq9eSyYHY-17">
          <mxGeometry relative="1" as="geometry" />
        </mxCell>
        <mxCell id="AduboDJ0jxMKq9eSyYHY-51" style="edgeStyle=orthogonalEdgeStyle;rounded=0;orthogonalLoop=1;jettySize=auto;html=1;entryX=0;entryY=0.5;entryDx=0;entryDy=0;exitX=1;exitY=0.25;exitDx=0;exitDy=0;" edge="1" parent="1" source="AduboDJ0jxMKq9eSyYHY-15" target="AduboDJ0jxMKq9eSyYHY-37">
          <mxGeometry relative="1" as="geometry">
            <Array as="points">
              <mxPoint x="320" y="450" />
              <mxPoint x="320" y="165" />
            </Array>
          </mxGeometry>
        </mxCell>
        <mxCell id="AduboDJ0jxMKq9eSyYHY-52" style="edgeStyle=orthogonalEdgeStyle;rounded=0;orthogonalLoop=1;jettySize=auto;html=1;exitX=1;exitY=0.5;exitDx=0;exitDy=0;entryX=0;entryY=0.5;entryDx=0;entryDy=0;" edge="1" parent="1" source="AduboDJ0jxMKq9eSyYHY-15" target="AduboDJ0jxMKq9eSyYHY-49">
          <mxGeometry relative="1" as="geometry">
            <Array as="points">
              <mxPoint x="350" y="465" />
              <mxPoint x="350" y="260" />
            </Array>
          </mxGeometry>
        </mxCell>
        <mxCell id="AduboDJ0jxMKq9eSyYHY-56" style="edgeStyle=orthogonalEdgeStyle;rounded=0;orthogonalLoop=1;jettySize=auto;html=1;exitX=1;exitY=0.75;exitDx=0;exitDy=0;entryX=0;entryY=0.5;entryDx=0;entryDy=0;" edge="1" parent="1" source="AduboDJ0jxMKq9eSyYHY-15" target="AduboDJ0jxMKq9eSyYHY-54">
          <mxGeometry relative="1" as="geometry">
            <Array as="points">
              <mxPoint x="380" y="480" />
              <mxPoint x="380" y="350" />
            </Array>
          </mxGeometry>
        </mxCell>
        <mxCell id="AduboDJ0jxMKq9eSyYHY-15" value="Consulta de Usuários Cadastrados" style="whiteSpace=wrap;html=1;rounded=0;" vertex="1" parent="1">
          <mxGeometry y="435" width="120" height="60" as="geometry" />
        </mxCell>
        <mxCell id="AduboDJ0jxMKq9eSyYHY-19" value="" style="edgeStyle=orthogonalEdgeStyle;rounded=0;orthogonalLoop=1;jettySize=auto;html=1;" edge="1" parent="1" source="AduboDJ0jxMKq9eSyYHY-17" target="AduboDJ0jxMKq9eSyYHY-18">
          <mxGeometry relative="1" as="geometry" />
        </mxCell>
        <mxCell id="AduboDJ0jxMKq9eSyYHY-17" value="Consulta de ID&#39;s de Usuários" style="rounded=0;whiteSpace=wrap;html=1;" vertex="1" parent="1">
          <mxGeometry x="170" y="530" width="120" height="60" as="geometry" />
        </mxCell>
        <mxCell id="AduboDJ0jxMKq9eSyYHY-22" value="Sim" style="edgeStyle=orthogonalEdgeStyle;rounded=0;orthogonalLoop=1;jettySize=auto;html=1;entryX=0.25;entryY=1;entryDx=0;entryDy=0;" edge="1" parent="1" source="AduboDJ0jxMKq9eSyYHY-18" target="AduboDJ0jxMKq9eSyYHY-15">
          <mxGeometry x="-0.4359" relative="1" as="geometry">
            <Array as="points">
              <mxPoint x="30" y="675" />
            </Array>
            <mxPoint as="offset" />
          </mxGeometry>
        </mxCell>
        <mxCell id="AduboDJ0jxMKq9eSyYHY-23" value="Não" style="edgeStyle=orthogonalEdgeStyle;rounded=0;orthogonalLoop=1;jettySize=auto;html=1;entryX=1;entryY=0.5;entryDx=0;entryDy=0;" edge="1" parent="1" source="AduboDJ0jxMKq9eSyYHY-18" target="AduboDJ0jxMKq9eSyYHY-17">
          <mxGeometry relative="1" as="geometry">
            <Array as="points">
              <mxPoint x="310" y="675" />
              <mxPoint x="310" y="560" />
            </Array>
          </mxGeometry>
        </mxCell>
        <mxCell id="AduboDJ0jxMKq9eSyYHY-24" value="Delay 15s" style="edgeLabel;html=1;align=center;verticalAlign=middle;resizable=0;points=[];" vertex="1" connectable="0" parent="AduboDJ0jxMKq9eSyYHY-23">
          <mxGeometry x="0.3875" relative="1" as="geometry">
            <mxPoint y="16" as="offset" />
          </mxGeometry>
        </mxCell>
        <mxCell id="AduboDJ0jxMKq9eSyYHY-18" value="Quantidade &lt;br&gt;de usuários &lt;br&gt;aumentou?" style="rhombus;whiteSpace=wrap;html=1;rounded=0;" vertex="1" parent="1">
          <mxGeometry x="175" y="620" width="110" height="110" as="geometry" />
        </mxCell>
        <mxCell id="AduboDJ0jxMKq9eSyYHY-30" value="PIR = 1&lt;br&gt;LDR = 1" style="edgeStyle=orthogonalEdgeStyle;rounded=0;orthogonalLoop=1;jettySize=auto;html=1;" edge="1" parent="1" source="AduboDJ0jxMKq9eSyYHY-27" target="AduboDJ0jxMKq9eSyYHY-29">
          <mxGeometry relative="1" as="geometry" />
        </mxCell>
        <mxCell id="AduboDJ0jxMKq9eSyYHY-27" value="Inicialização sensor PIR e LDR" style="rounded=0;whiteSpace=wrap;html=1;" vertex="1" parent="1">
          <mxGeometry x="414" y="40" width="120" height="60" as="geometry" />
        </mxCell>
        <mxCell id="AduboDJ0jxMKq9eSyYHY-29" value="LIGA LUZ AUXILIAR" style="whiteSpace=wrap;html=1;rounded=0;" vertex="1" parent="1">
          <mxGeometry x="614" y="40" width="120" height="60" as="geometry" />
        </mxCell>
        <mxCell id="AduboDJ0jxMKq9eSyYHY-39" value="Senha &lt;br&gt;digitada" style="edgeStyle=orthogonalEdgeStyle;rounded=0;orthogonalLoop=1;jettySize=auto;html=1;entryX=0;entryY=0.5;entryDx=0;entryDy=0;" edge="1" parent="1" source="AduboDJ0jxMKq9eSyYHY-37" target="AduboDJ0jxMKq9eSyYHY-40">
          <mxGeometry relative="1" as="geometry">
            <mxPoint x="614" y="150" as="targetPoint" />
          </mxGeometry>
        </mxCell>
        <mxCell id="AduboDJ0jxMKq9eSyYHY-37" value="Inicialização Teclado Matricial" style="rounded=0;whiteSpace=wrap;html=1;" vertex="1" parent="1">
          <mxGeometry x="414" y="135" width="120" height="60" as="geometry" />
        </mxCell>
        <mxCell id="AduboDJ0jxMKq9eSyYHY-42" value="Sim" style="edgeStyle=orthogonalEdgeStyle;rounded=0;orthogonalLoop=1;jettySize=auto;html=1;exitX=1;exitY=0.5;exitDx=0;exitDy=0;" edge="1" parent="1" source="AduboDJ0jxMKq9eSyYHY-40" target="AduboDJ0jxMKq9eSyYHY-41">
          <mxGeometry relative="1" as="geometry">
            <Array as="points">
              <mxPoint x="750" y="165" />
              <mxPoint x="750" y="650" />
            </Array>
          </mxGeometry>
        </mxCell>
        <mxCell id="AduboDJ0jxMKq9eSyYHY-44" value="" style="edgeStyle=orthogonalEdgeStyle;rounded=0;orthogonalLoop=1;jettySize=auto;html=1;" edge="1" parent="1" source="AduboDJ0jxMKq9eSyYHY-40" target="AduboDJ0jxMKq9eSyYHY-43">
          <mxGeometry relative="1" as="geometry">
            <Array as="points">
              <mxPoint x="675" y="310" />
            </Array>
          </mxGeometry>
        </mxCell>
        <mxCell id="AduboDJ0jxMKq9eSyYHY-40" value="Segredo &lt;br&gt;está cadastrado&lt;br&gt;&amp;nbsp;para algum usuário?" style="rhombus;whiteSpace=wrap;html=1;" vertex="1" parent="1">
          <mxGeometry x="620" y="110" width="110" height="110" as="geometry" />
        </mxCell>
        <mxCell id="AduboDJ0jxMKq9eSyYHY-41" value="Abre porta&lt;br&gt;Aciona LED verde&lt;br&gt;Buzzer Sucesso" style="whiteSpace=wrap;html=1;" vertex="1" parent="1">
          <mxGeometry x="615" y="620" width="120" height="60" as="geometry" />
        </mxCell>
        <mxCell id="AduboDJ0jxMKq9eSyYHY-43" value="Aciona LED Vermelho&lt;br&gt;Buzzer ERRO" style="whiteSpace=wrap;html=1;" vertex="1" parent="1">
          <mxGeometry x="615" y="520" width="120" height="60" as="geometry" />
        </mxCell>
        <mxCell id="AduboDJ0jxMKq9eSyYHY-53" value="Cartão Aproximado" style="edgeStyle=orthogonalEdgeStyle;rounded=0;orthogonalLoop=1;jettySize=auto;html=1;entryX=0;entryY=1;entryDx=0;entryDy=0;" edge="1" parent="1" source="AduboDJ0jxMKq9eSyYHY-49" target="AduboDJ0jxMKq9eSyYHY-40">
          <mxGeometry x="-0.3812" relative="1" as="geometry">
            <mxPoint as="offset" />
          </mxGeometry>
        </mxCell>
        <mxCell id="AduboDJ0jxMKq9eSyYHY-49" value="Inicialização Leitor RFID" style="rounded=0;whiteSpace=wrap;html=1;" vertex="1" parent="1">
          <mxGeometry x="414" y="230" width="120" height="60" as="geometry" />
        </mxCell>
        <mxCell id="AduboDJ0jxMKq9eSyYHY-55" value="Digital inserida" style="edgeStyle=orthogonalEdgeStyle;rounded=0;orthogonalLoop=1;jettySize=auto;html=1;entryX=0.391;entryY=0.873;entryDx=0;entryDy=0;entryPerimeter=0;" edge="1" parent="1" source="AduboDJ0jxMKq9eSyYHY-54" target="AduboDJ0jxMKq9eSyYHY-40">
          <mxGeometry x="-0.4432" relative="1" as="geometry">
            <mxPoint as="offset" />
          </mxGeometry>
        </mxCell>
        <mxCell id="AduboDJ0jxMKq9eSyYHY-54" value="Inicialização Leitor Biométrico" style="rounded=0;whiteSpace=wrap;html=1;" vertex="1" parent="1">
          <mxGeometry x="414" y="320" width="120" height="60" as="geometry" />
        </mxCell>
      </root>
    </mxGraphModel>
  </diagram>
</mxfile>
